<svg xmlns="http://www.w3.org/2000/svg" width="512" height="512" viewBox="0 0 512 512">
  <defs>
    <linearGradient id="bg" x1="0" y1="0" x2="0" y2="1">
      <stop offset="0" stop-color="#fbfcfe"/>
      <stop offset="1" stop-color="#dde4ef"/>
    </linearGradient>
  </defs>
  <rect x="14" y="14" width="484" height="484" rx="86" fill="url(#bg)" stroke="#b9c4d6" stroke-width="6"/>
  <rect x="52" y="66" width="408" height="362" rx="26" fill="#ffffff" stroke="#c8d2e2" stroke-width="4"/>
  <g stroke-linecap="round" fill="none">
    <path d="M104 158 C170 118 214 214 286 176" stroke="#2f6fdb" stroke-width="26"/>
    <path d="M120 252 h196" stroke="#e11d2e" stroke-width="22"/>
    <path d="M120 320 h132" stroke="#d29922" stroke-width="22" stroke-dasharray="46 26"/>
    <circle cx="330" cy="330" r="46" stroke="#2da44e" stroke-width="20"/>
    <path d="M300 330 l22 24 l44 -52" stroke="#2da44e" stroke-width="20"/>
  </g>
  <g transform="translate(322 372) rotate(38)">
    <rect x="0" y="-26" width="132" height="52" rx="10" fill="#f0b429"/>
    <rect x="0" y="-26" width="34" height="52" rx="10" fill="#e87722"/>
    <rect x="88" y="-26" width="30" height="52" fill="#9aa4b2"/>
    <path d="M132 -26 L176 0 L132 26 Z" fill="#f2d0a8"/>
    <path d="M168 -8 L176 0 L168 8 Z" fill="#2b3444"/>
  </g>
</svg>